<?xml version="1.0" standalone="no"?><!DOCTYPE svg PUBLIC "-//W3C//DTD SVG 1.1//EN" "http://www.w3.org/Graphics/SVG/1.1/DTD/svg11.dtd"><svg t="1573462374409" class="icon" viewBox="0 0 1117 1024" version="1.1" xmlns="http://www.w3.org/2000/svg" p-id="5581" xmlns:xlink="http://www.w3.org/1999/xlink" width="139.625" height="128"><defs><style type="text/css"></style></defs><path d="M558.548247 1023.99488a119.435039 119.435039 0 0 1-72.610546-24.017334 2203.124984 2203.124984 0 0 1-192.790309-156.578127c-137.494585-125.020466-228.071587-239.987164-269.683015-341.688473l-1.861809-4.654522v-4.18907a337.127042 337.127042 0 0 1-21.550437-111.987804V359.329112a369.522516 369.522516 0 0 1 98.117327-252.926735 321.162031 321.162031 0 0 1 464.381678-13.498114A331.401979 331.401979 0 0 1 787.224922 0a321.162031 321.162031 0 0 1 233.005381 100.81695 348.763347 348.763347 0 0 1 73.681086 116.363055 360.260017 360.260017 0 0 1 23.272611 142.521469v20.991895a262.701232 262.701232 0 0 1-19.130087 101.235858 244.315869 244.315869 0 0 1-16.756279 41.285611 28.951128 28.951128 0 0 1-5.864698 15.127198l-11.682851 23.738063a1285.811753 1285.811753 0 0 1-264.888857 303.428301 2210.386039 2210.386039 0 0 1-167.562799 134.376055A119.52813 119.52813 0 0 1 558.548247 1023.99488z m0 0" fill="#FE759C" p-id="5582"></path></svg>