<?xml version="1.0" standalone="no"?><!DOCTYPE svg PUBLIC "-//W3C//DTD SVG 1.1//EN" "http://www.w3.org/Graphics/SVG/1.1/DTD/svg11.dtd"><svg t="1573458038712" class="icon" viewBox="0 0 1024 1024" version="1.1" xmlns="http://www.w3.org/2000/svg" p-id="3079" xmlns:xlink="http://www.w3.org/1999/xlink" width="128" height="128"><defs><style type="text/css"></style></defs><path d="M933.718342 196.809963l-2.095107-2.095107a22.23937 22.23937 0 0 0-31.439624 0l-99.992578 99.992578-92.900445 92.913458a22.23937 22.23937 0 0 1-31.439624 0l-2.095107-2.095107a22.226357 22.226357 0 0 1 0-31.439624L773.201886 254.575067A359.916025 359.916025 0 0 0 487.954967 114.515186C288.802648 114.515186 127.375275 276.007625 127.375275 475.159944a360.462575 360.462575 0 0 0 16.292388 107.436066L56.180663 670.069996a22.23937 22.23937 0 0 0 0 31.439624l2.095107 2.095107a22.23937 22.23937 0 0 0 31.439624 0L126.997895 666.270174l0.20821-0.234236L293.86474 499.442369a22.226357 22.226357 0 0 1 31.439624 0l2.095107 2.095107a22.23937 22.23937 0 0 1 0 31.439624l-140.541365 140.541365A361.972093 361.972093 0 0 0 340.282429 804.208921h295.397128c125.511247-56.411742 212.907155-182.521591 212.907155-329.048977a359.525632 359.525632 0 0 0-26.312467-135.336129l111.49615-111.496149a22.226357 22.226357 0 0 0-0.052053-31.517703z m-254.562053 75.319761a16.266362 16.266362 0 1 1-16.253349 16.266362 16.266362 16.266362 0 0 1 16.253349-16.266362zM498.977054 215.106367l5.205236-10.618681 5.205235 10.618681 11.711781 1.704714-8.406456 8.315365 2.004016 11.71178-10.475537-5.504537-10.410472 5.504537 2.004016-11.71178-8.471521-8.263312zM511.63879 360.02013l10.917982-22.122252 10.930995 22.122252 24.425569 3.552573L540.267586 380.802033l4.177202 24.334477-21.848977-11.490558-21.848977 11.490558 4.177202-24.334477-17.684789-17.22933z m-119.29099-186.529623a41.537781 41.537781 0 1 1-41.524768 41.537781 41.537781 41.537781 0 0 1 41.524768-41.537781z m-81.188665 209.510738v28.876046a13.963045 13.963045 0 0 1-27.926089 0v-28.876046h-28.876045a13.963045 13.963045 0 0 1 0-27.926089h28.876045v-28.876046a13.963045 13.963045 0 0 1 27.926089 0v28.876046h28.876046a13.963045 13.963045 0 0 1 0 27.926089z m275.877494 421.116584l-1.301308-1.834845a173.438455 173.438455 0 0 0 68.969373-96.296861l-49.111399-49.137426a20.001118 20.001118 0 0 0-28.290456 0l-121.021731 121.021731-78.820282-78.820282a15.212301 15.212301 0 0 0-21.52365 0l-27.535697 27.535697a173.477494 173.477494 0 0 0 61.799161 75.632075l-1.301309 1.834846A175.559588 175.559588 0 0 1 312.538523 659.256119c0-96.752319 78.716177-175.468497 175.468497-175.468497s175.468497 78.716177 175.468496 175.468497a175.520549 175.520549 0 0 1-76.425873 144.86171z m161.232177-319.861735h-21.562689v21.536662a10.410471 10.410471 0 0 1-20.820943 0v-21.536662h-21.536662a10.410471 10.410471 0 1 1 0-20.820943h21.523649v-21.536663a10.410471 10.410471 0 0 1 20.820943 0v21.536663h21.52365a10.410471 10.410471 0 1 1 0 20.820943z" fill="#3857AD" p-id="3080"></path><path d="M649.785746 806.73346a3.552573 3.552573 0 0 1-3.552573 3.552574H90.444127a3.552573 3.552573 0 0 1-3.552573-3.552574 3.552573 3.552573 0 0 1 3.552573-3.552573h555.789046a3.552573 3.552573 0 0 1 3.552573 3.552573z m162.923879 0c0 1.964976-0.37738 3.552573-0.832838 3.552574H680.808951c-0.455458 0-0.832838-1.587597-0.832838-3.552574s0.37738-3.552573 0.832838-3.552573h131.067836c0.455458 0 0.832838 1.587597 0.832838 3.552573z m-140.281103 0a27.730893 27.730893 0 0 1-0.117118 3.552574h-17.971077a54.954276 54.954276 0 0 1 0-7.105147h17.971077a27.561723 27.561723 0 0 1 0.117118 3.552573z m37.959181 48.148431c0 1.964976-0.37738 3.552573-0.832837 3.552573H578.48703c-0.455458 0-0.832838-1.587597-0.832838-3.552573s0.37738-3.552573 0.832838-3.552573h131.054822c0.468471-0.039039 0.845851 1.548558 0.845851 3.513534z m-140.281103 0a27.75692 27.75692 0 0 1-0.117118 3.552573H551.979367a54.954276 54.954276 0 0 1 0-7.105146h17.971076a27.795959 27.795959 0 0 1 0.156157 3.513534z m61.044402-13.754835a3.552573 3.552573 0 0 1-3.552573 3.552573H71.79637a3.552573 3.552573 0 0 1-3.552573-3.552573A3.552573 3.552573 0 0 1 71.79637 837.52243h555.802059a3.552573 3.552573 0 0 1 3.552573 3.552573z m22.642776 0a27.75692 27.75692 0 0 1-0.117118 3.552573h-17.971076a54.980302 54.980302 0 0 1 0-7.105147h17.971076a27.769933 27.769933 0 0 1 0.104105 3.500521z m171.122125-788.749371H782.311048V9.77283a9.77283 9.77283 0 0 0-19.519634 0v42.604855h-42.643894a9.77283 9.77283 0 1 0 0 19.519634H762.791414V114.515186a9.77283 9.77283 0 0 0 19.519634 0V71.910332h42.617868a9.77283 9.77283 0 1 0 0-19.519634zM166.02415 238.061456h-18.868979v-18.868979a4.320346 4.320346 0 1 0-8.653705 0v18.868979H119.619474a4.320346 4.320346 0 0 0-4.320346 4.320346 4.320346 4.320346 0 0 0 4.320346 4.320346h18.881992v18.868979a4.320346 4.320346 0 1 0 8.653705 0v-18.868979h18.868979a4.320346 4.320346 0 0 0 4.320346-4.320346 4.320346 4.320346 0 0 0-4.320346-4.320346z m758.832279 362.258381l15.264353 30.945127 34.146347 4.957987-24.72487 24.087228 5.842877 34.016216-30.54172-16.058153-30.541721 16.058153 5.829864-34.003203-24.72487-24.087228 34.146347-4.957987z m-577.781167-566.069386l6.506545 13.273351 14.652738 2.134147-10.605667 10.345406 2.498513 14.600686-13.000077-6.935976-13.104181 6.896937 2.498514-14.600686-10.605668-10.345406 14.652738-2.134147z m208.040259 554.800051c-29.591765 0-52.768077-8.276325-52.768077-18.842953a0.936942 0.936942 0 0 1 1.886898 0c0 9.200254 23.29343 16.917016 50.881179 16.917016s50.881179-7.807854 50.88118-16.917016a0.949956 0.949956 0 0 1 1.886898 0c0.052052 10.566629-23.176312 18.842953-52.768078 18.842953z" fill="#3857AD" p-id="3081"></path><path d="M583.379951 595.882374a0.949956 0.949956 0 0 1-0.936942-0.936943v-9.655712a0.936942 0.936942 0 1 1 1.886898 0v9.655712a0.949956 0.949956 0 0 1-0.949956 0.936943z m-27.210369 2.82384a0.949956 0.949956 0 0 1-0.936943-0.936942v-9.655712a0.936942 0.936942 0 0 1 1.886898 0v9.655712a0.949956 0.949956 0 0 1-0.936942 0.936942z m-27.21037-2.82384a0.949956 0.949956 0 0 1-0.936943-0.936943v-9.655712a0.949956 0.949956 0 0 1 1.886898 0v9.655712a0.949956 0.949956 0 0 1-0.936942 0.936943z m87.395908 3.903927l-13.715796-4.164189 4.164188 13.715796s0.936942 4.762791 2.771788 6.584623A9.460516 9.460516 0 1 0 622.952756 602.506036c-1.821833-1.756767-6.584623-2.706723-6.584623-2.706722zM434.783484 589.050502c-29.591765 0-52.768077-8.276325-52.768077-18.842953a0.936942 0.936942 0 0 1 1.886898 0c0 9.200254 23.29343 16.917016 50.881179 16.917016s50.881179-7.807854 50.881179-16.917016a0.949956 0.949956 0 0 1 1.886898 0c0 10.566629-23.176312 18.842953-52.768077 18.842953z" fill="#3857AD" p-id="3082"></path><path d="M406.519054 595.882374a0.949956 0.949956 0 0 1-0.936942-0.936943v-9.655712a0.936942 0.936942 0 1 1 1.886898 0v9.655712a0.949956 0.949956 0 0 1-0.949956 0.936943z m27.21037 2.82384a0.949956 0.949956 0 0 1-0.936942-0.936942v-9.655712a0.936942 0.936942 0 1 1 1.886897 0v9.655712a0.949956 0.949956 0 0 1-0.949955 0.936942z m27.158317-2.82384a0.949956 0.949956 0 0 1-0.936942-0.936943v-9.655712a0.949956 0.949956 0 0 1 1.886898 0v9.655712a0.949956 0.949956 0 0 1-0.949956 0.936943zM373.530873 599.799314l13.715796-4.164189-4.164189 13.715796s-0.936942 4.762791-2.771788 6.584624A9.460516 9.460516 0 1 1 366.946249 602.506036c1.821833-1.756767 6.584623-2.706723 6.584624-2.706722z" fill="#3857AD" p-id="3083"></path><path d="M250.30993 949.86443l1.015021 8.666718q15.745838-1.210217 30.593773-2.160173v9.694751h8.926979v-10.202262q9.876935-0.572576 19.37649-1.015021 0.260262-3.825848 0.767772-8.289338-9.499555 0.702707-20.144262 1.301309v-9.499555h20.521642v-7.651696h-20.521642V921.326725h-8.926979v9.43449h-15.797891q4.203228-7.014055 8.159207-14.40549h38.375601v-7.651697h-34.432635q2.602618-4.971 4.971-10.072131l-8.796848-2.927945q-2.940958 6.883924-5.933969 13.01309h-17.268369v7.651696h13.377456a165.474444 165.474444 0 0 1-8.796849 14.314398v7.807854h26.130284v10.007066q-14.782869 0.832838-31.608794 1.470479z m19.519634 72.8733h9.174228v-5.608641H347.673864V1022.828822h9.174228v-54.095412h-87.031541z m9.109162-46.144414H347.673864v12.492565h-68.709112z m0 20.014131H347.673864v12.622697h-68.709112z" fill="#3857AD" p-id="3084"></path><path d="M319.396421 927.182615q0 21.796925-11.477545 33.651849 4.08611 3.435456 7.144186 6.376414 10.137197-11.529597 12.492566-28.941111h20.521642v26.767925h8.926979V938.243741h18.218325v-7.651696H328.15423V914.429788q20.912035-1.015021 44.999263-3.695718l-2.927945-8.419468a328.34627 328.34627 0 0 1-50.868166 4.463489z m175.546575 75.215657q-1.145152 7.521566-9.811869 7.521565H467.654548q-9.304359 0-9.304359-10.072131v-33.534731h-10.31938v35.057263Q448.030809 1018.924895 464.791668 1018.924895h21.992121q16.448545 0 18.101207-12.752827 1.015021-6.376414 2.290304-18.999111-5.868903-1.912924-10.709772-3.695717-0.50751 11.607676-1.535545 18.868979z" fill="#3857AD" p-id="3085"></path><path d="M380.97436 1014.890837a82.268751 82.268751 0 0 1 6.883924 9.109163q43.606862-23.709849 53.288601-66.796188h64.505884v-9.942h-62.332698a236.994383 236.994383 0 0 0 3.253272-29.643817h49.44974v-9.942001h-103.571178v9.942001h43.476731a178.539586 178.539586 0 0 1-3.188207 29.578752H382.809205v9.942h47.627907q-11.477545 38.75298-49.462752 57.75209z m228.067404-83.374863V923.929343h-45.129394q2.745762-3.383403 5.101131-6.883924l-8.406456-3.903927a113.213877 113.213877 0 0 1-28.628797 29.708883q3.695717 3.565586 6.246283 6.246283a168.246232 168.246232 0 0 0 13.195273-11.347414 73.003431 73.003431 0 0 0 15.485576 14.210293 214.715974 214.715974 0 0 1-37.048265 10.52759 54.121439 54.121439 0 0 1 4.333359 8.159207q25.817969-6.688728 41.433676-13.702783a239.12853 239.12853 0 0 0 38.24547 11.71178 71.806227 71.806227 0 0 1 4.216241-9.590647 176.53557 176.53557 0 0 1-32.949143-7.07912 98.509086 98.509086 0 0 0 23.892032-20.46959zM575.402928 947.951506a58.897242 58.897242 0 0 1-18.673784-15.615707 4.151175 4.151175 0 0 0 0.390393-0.442445h39.325556A73.75819 73.75819 0 0 1 575.402928 947.951506z" fill="#3857AD" p-id="3086"></path><path d="M527.566811 1016.322277H620.94874v6.116152h9.564621v-119.993697h-112.51117v119.954658h9.56462z m0-104.664277H620.94874v95.490049h-93.368916z" fill="#3857AD" p-id="3087"></path><path d="M531.913183 942.863388z m22.564697 32.376566z m-13.377456 16.917016q32.376566 4.46349 60.549905 10.709773l3.435455-9.694752q-29.448621-5.621655-61.317677-9.811869z m55.318643-19.116228q-20.651773-3.565586-39.390622-6.376414l-2.602617 8.536587q18.361469 2.602618 39.26049 6.753793z m78.794256 3.435456h52.650959v45.897166h10.957021V966.872538h-62.853221q0.390393-14.314398 0.37738-22.434566h91.091625v-9.564621h-34.107307v-36.892108H722.450837v36.840056h-46.105375v-34.536739h-10.826891v52.898208q0 24.72487-3.903927 35.955166-3.903927 12.492566-15.680772 24.855a77.974431 77.974431 0 0 1 8.029076 9.109163q18.738849-18.99911 21.289414-46.534808z" fill="#3857AD" p-id="3088"></path><path d="M362.391668 628.402084l7.807854-6.818859 1.301309 10.280341s0.793798 3.422442 0.130131 5.205236a6.844885 6.844885 0 0 1-12.791867-4.84087c0.689694-1.795806 3.552573-3.825848 3.552573-3.825848zM614.442196 622.767416a6.844885 6.844885 0 1 1-9.668726 9.681739c-1.301309-1.301309-2.004016-4.762791-2.004016-4.762791l-3.019036-9.928987 9.928987 3.006024s3.461482 0.689694 4.762791 2.004015z" fill="#3857AD" p-id="3089"></path></svg>